<?xml version="1.0" encoding="utf-8"?>
<!-- Generator: Adobe Illustrator 19.2.1, SVG Export Plug-In . SVG Version: 6.00 Build 0)  -->
<svg version="1.1" id="Layer_1" xmlns="http://www.w3.org/2000/svg" xmlns:xlink="http://www.w3.org/1999/xlink" x="0px" y="0px"
	 viewBox="0 0 100 100" style="enable-background:new 0 0 100 100;" xml:space="preserve">
<style type="text/css">
	.st0{fill:#297385;}
	.st1{fill-rule:evenodd;clip-rule:evenodd;fill:#E02A2D;}
</style>
<g>
	<g>
		<path class="st0" d="M67.7,80c0.7,0.7,2.8-0.2,3.6-1l1.2-1.2c0.7-0.7,1.7-2.8,1-3.6L55.5,57.3l-4.7,4.9L67.7,80z M67.7,80"/>
		<path class="st0" d="M38.1,40.8c2.3-4,1.1-8.9-2.6-12.6c-4.3-4.3-13.7-8.6-18-4.2c-4.3,4.3-0.1,13.6,4.2,18
			c3.6,3.6,8.4,4.8,12.4,2.7l8.5,8.9l4.5-4.2L38.1,40.8z M38.1,40.8"/>
		<path class="st0" d="M60.1,40.6L24.7,74.3c-0.7,0.7,0.2,2.8,0.9,3.6l1.2,1.2c0.5,0.5,1.9,1.2,2.8,1.2c0.3,0,0.6-0.1,0.8-0.3
			l33.7-35.6c0.9,0.5,1.9,0.7,2.9,0.8c3,0.3,6.1-1,8.6-3.5c8.5-8.5,10-10.4,7.4-13.7l-10,9.6c-0.2,0.2-0.5,0.4-0.9,0.4
			c-0.3,0-0.6-0.1-0.7-0.3l-0.3-0.3c-0.2-0.2-0.3-0.5-0.3-0.7c0-0.3,0.1-0.6,0.4-0.9l9.1-10.7l-0.6-0.6c-0.4-0.4-0.8-0.8-1.1-1.1
			l-10.7,9.2c-0.2,0.2-0.5,0.3-0.8,0.3c-0.3,0-0.5-0.1-0.7-0.3L66,32.3c-0.2-0.2-0.3-0.5-0.3-0.7c0-0.3,0.1-0.6,0.4-0.9l9.6-10
			c-3.1-2.2-5-0.4-13.2,7.8c-2.7,2.7-4,6.2-3.4,9.4C59.2,38.8,59.6,39.8,60.1,40.6L60.1,40.6z M60.1,40.6"/>
	</g>
</g>
</svg>
