<?xml version="1.0" encoding="utf-8"?>
<!-- Generator: Adobe Illustrator 19.2.1, SVG Export Plug-In . SVG Version: 6.00 Build 0)  -->
<svg version="1.1" id="Layer_1" xmlns="http://www.w3.org/2000/svg" xmlns:xlink="http://www.w3.org/1999/xlink" x="0px" y="0px"
	 viewBox="0 0 100 100" style="enable-background:new 0 0 100 100;" xml:space="preserve">
<style type="text/css">
	.st0{fill:#297385;}
	.st1{fill-rule:evenodd;clip-rule:evenodd;fill:#E02A2D;}
</style>
<g>
	<g>
		<path class="st0" d="M57.2,68.3L51.3,67V54.4C56.8,53.7,61,49,61,43.3c0-0.5,0-1-0.1-1.6c0,0,0-0.1,0-0.1l-1.5-9.7
			c-0.1-0.4-0.4-0.7-0.8-0.7h-7.1c-0.4,0-0.7,0.3-0.8,0.6l-1,4.8c0,0.2,0,0.5,0.2,0.7c0.2,0.2,0.4,0.3,0.6,0.3h3.5L51,43.8l0.4-3.7
			c0-0.2-0.1-0.5-0.2-0.6c-0.2-0.2-0.4-0.3-0.6-0.3h-3.9l1-7.1c0-0.2,0-0.5-0.2-0.6c-0.2-0.2-0.4-0.3-0.6-0.3h-6
			c-0.4,0-0.7,0.3-0.8,0.7l-1.5,9.7c0,0,0,0.1,0,0.1c-0.1,0.6-0.1,1.1-0.1,1.6c0,5.7,4.2,10.4,9.7,11.2V67l-5.8,1.3
			c-0.4,0.1-0.7,0.5-0.6,0.9c0,0.4,0.4,0.7,0.8,0.7H57c0.4,0,0.8-0.3,0.8-0.7C57.8,68.8,57.6,68.4,57.2,68.3L57.2,68.3z M57.2,68.3"
			/>
	</g>
	<path class="st1" d="M50,12.5c-20.7,0-37.5,16.8-37.5,37.5c0,20.7,16.8,37.5,37.5,37.5S87.5,70.7,87.5,50
		C87.5,29.3,70.7,12.5,50,12.5L50,12.5z M30.5,26.4c5.3-4.4,12.1-7,19.5-7c16.9,0,30.6,13.7,30.6,30.6c0,7.4-2.6,14.2-7,19.5
		L30.5,26.4L30.5,26.4z M69.5,73.6c-5.3,4.4-12.1,7-19.5,7c-16.9,0-30.6-13.7-30.6-30.6c0-7.4,2.6-14.2,7-19.5L69.5,73.6z"/>
</g>
</svg>
