<?xml version="1.0" encoding="utf-8"?>
<!-- Generator: Adobe Illustrator 19.2.1, SVG Export Plug-In . SVG Version: 6.00 Build 0)  -->
<svg version="1.1" id="Layer_1" xmlns="http://www.w3.org/2000/svg" xmlns:xlink="http://www.w3.org/1999/xlink" x="0px" y="0px"
	 viewBox="0 0 100 100" style="enable-background:new 0 0 100 100;" xml:space="preserve">
<style type="text/css">
	.st0{fill:#297385;}
	.st1{fill-rule:evenodd;clip-rule:evenodd;fill:#E02A2D;}
</style>
<g>
	<g>
		<path class="st0" d="M37.5,44.1l-4.3-3.5c-1-0.8-2.4-0.6-3.2,0.4c-0.8,1-0.6,2.4,0.4,3.2l4.4,3.6v9.7c0,0-3.9,7.7-3.9,7.7
			c-0.6,1.1-0.1,2.5,1,3.1c0.3,0.2,0.7,0.3,1,0.3c0.8,0,1.6-0.4,2-1.2l3.9-7.5l4.4,7.6c0.4,0.7,1.2,1.1,2,1.1c0.4,0,0.8-0.1,1.1-0.3
			c1.1-0.6,1.5-2,0.8-3.1l-3.8-6.7h14.2v7.8c0,1.3,1,2.3,2.3,2.3c1.3,0,2.3-1,2.3-2.3v-8.6c0,0,0-0.1,0-0.1v-7.2l-10.6-6.1
			L37.5,44.1L37.5,44.1z M37.5,44.1"/>
		<g>
			<path class="st0" d="M68.1,39.5c-1.4-1.3-1.9-2.9-3.5-4c-0.3-0.2-0.6-0.4-0.9-0.6c-0.2-0.1-0.2-0.2-0.2-0.4
				c0.1-0.7,0.1-1.3,0.2-2c0.1-1.2-0.2-2.2-1.2-2.9c-0.4-0.3-2.2-1.2-3.1,1.9c-0.2,0.7-0.4,1.3-0.7,2c-1.2,2.3-2.7,4.3-4.1,6.4
				c-0.6,1-1.3,1.9-1.9,2.9l10,5.7c0,0,1.9-2.1,2.2-2c0.4,0.2,0.7,0.3,1.1,0.5c1.1,0.5,2.2,0.7,3.5,0.6c2-0.1,4.2-1.2,4.4-3.7
				C74,41.7,68.5,39.9,68.1,39.5L68.1,39.5z M68.1,39.5"/>
		</g>
	</g>
	<path class="st1" d="M50,12.5c-20.7,0-37.5,16.8-37.5,37.5c0,20.7,16.8,37.5,37.5,37.5c20.7,0,37.5-16.8,37.5-37.5
		C87.5,29.3,70.7,12.5,50,12.5L50,12.5z M30.5,26.4c5.3-4.4,12.1-7,19.5-7c16.9,0,30.6,13.7,30.6,30.6c0,7.4-2.6,14.2-7,19.5
		L30.5,26.4L30.5,26.4z M69.5,73.6c-5.3,4.4-12.1,7-19.5,7c-16.9,0-30.6-13.7-30.6-30.6c0-7.4,2.6-14.2,7-19.5L69.5,73.6z"/>
</g>
</svg>
