<?xml version="1.0" encoding="utf-8"?>
<!-- Generator: Adobe Illustrator 19.2.1, SVG Export Plug-In . SVG Version: 6.00 Build 0)  -->
<svg version="1.1" id="Layer_1" xmlns="http://www.w3.org/2000/svg" xmlns:xlink="http://www.w3.org/1999/xlink" x="0px" y="0px"
	 viewBox="0 0 100 100" style="enable-background:new 0 0 100 100;" xml:space="preserve">
<style type="text/css">
	.st0{fill:#297385;}
	.st1{fill-rule:evenodd;clip-rule:evenodd;fill:#E02A2D;}
</style>
<g>
	<g>
		<path class="st0" d="M45.7,44.7c0.1-0.3,0.2-0.6,0.2-0.9c0.2-10.3,2.1-14.4,2.1-14.5c0,0,0,0,0,0c0,0,0-0.1,0.1-0.1c0,0,0,0,0-0.1
			c0,0,0-0.1,0-0.1c0,0,0-0.1,0-0.1c0,0,0-0.1,0-0.1c0,0,0-0.1,0-0.1c0,0,0-0.1,0-0.1c0,0,0-0.1,0-0.1c0,0,0-0.1,0-0.1
			c0,0,0-0.1,0-0.1c0-0.1,0-0.1,0-0.2c0,0,0,0,0-0.1c0,0,0-0.1,0-0.1c0,0,0,0,0-0.1c0,0,0-0.1,0-0.1c0,0,0,0,0-0.1c0,0,0-0.1,0-0.1
			c0,0,0,0,0-0.1c0,0,0-0.1-0.1-0.1c0,0,0,0,0-0.1c0,0,0-0.1-0.1-0.1c0,0,0,0-0.1-0.1c0,0,0-0.1-0.1-0.1c0,0,0-0.1-0.1-0.1
			c0,0,0,0,0,0c0,0,0,0,0,0c0,0,0,0,0-0.1c0,0,0-0.1,0-0.1c0,0,0,0,0,0c0-0.2,0.1-0.4,0.1-0.6h3.5c0,0.2,0,0.4,0.1,0.6
			c0,0.1,0,0.1,0,0.2c-0.6,0.6-0.7,1.5-0.4,2.3c0,0,0,0.1,0,0.1c0,0,0,0,0,0.1c0,0,2,4.1,2.1,14.5c0,0.3,0.1,0.6,0.2,0.9
			c0.6,1.2,1.5,3.1,2.2,4.4c0.3,0.6,0.5,1.4,0.5,2.1v20.1c0,1.4-1.1,2.6-2.6,2.6h-8c-1.4,0-2.6-1.1-2.6-2.6V51.2
			c0-0.7,0.2-1.4,0.5-2.1C44.2,47.8,45.2,45.9,45.7,44.7L45.7,44.7z M45.7,44.7"/>
	</g>
	<path class="st1" d="M50,12.5c-20.7,0-37.5,16.8-37.5,37.5c0,20.7,16.8,37.5,37.5,37.5c20.7,0,37.5-16.8,37.5-37.5
		C87.5,29.3,70.7,12.5,50,12.5L50,12.5z M30.5,26.4c5.3-4.4,12.1-7,19.5-7c16.9,0,30.6,13.7,30.6,30.6c0,7.4-2.6,14.2-7,19.5
		L30.5,26.4L30.5,26.4z M69.5,73.6c-5.3,4.4-12.1,7-19.5,7c-16.9,0-30.6-13.7-30.6-30.6c0-7.4,2.6-14.2,7-19.5L69.5,73.6z"/>
</g>
</svg>
