<?xml version="1.0" encoding="utf-8"?>
<!-- Generator: Adobe Illustrator 19.2.1, SVG Export Plug-In . SVG Version: 6.00 Build 0)  -->
<svg version="1.1" id="Layer_1" xmlns="http://www.w3.org/2000/svg" xmlns:xlink="http://www.w3.org/1999/xlink" x="0px" y="0px"
	 viewBox="0 0 100 100" style="enable-background:new 0 0 100 100;" xml:space="preserve">
<style type="text/css">
	.st0{fill:#297385;}
	.st1{fill-rule:evenodd;clip-rule:evenodd;fill:#E02A2D;}
</style>
<g>
	<g>
		<path class="st0" d="M25.1,55.8c-3.8,0-6.9,3.1-6.9,6.9c0,0.5,0.1,1,0.2,1.5c0,0.2,0.1,0.4,0.2,0.6c0.1,0.2,0.1,0.4,0.2,0.6
			c1.1,2.4,3.5,4.2,6.3,4.2c2.9,0,5.4-1.8,6.4-4.4c0.1-0.2,0.1-0.4,0.2-0.6c0.1-0.2,0.1-0.4,0.1-0.6c0.1-0.4,0.1-0.8,0.1-1.2
			C32,58.9,28.9,55.8,25.1,55.8z"/>
		<path class="st0" d="M78.7,55.8c-3.8,0-6.9,3.1-6.9,6.9c0,0.1,0,0.3,0,0.4c0,0.2,0,0.4,0.1,0.6c0,0.2,0.1,0.4,0.1,0.6
			c0.7,3,3.5,5.2,6.7,5.2c3.4,0,6.2-2.4,6.8-5.7c0-0.2,0.1-0.4,0.1-0.6c0-0.2,0-0.4,0-0.6v0C85.6,58.9,82.5,55.8,78.7,55.8z"/>
		<path class="st0" d="M92.4,52.6c-0.3-0.5-0.5-2.3-0.6-4c-0.1-1.5-0.3-3.1-0.5-4.5c-0.2-1-0.6-2.3-2-2.3c-0.1,0-0.3,0-0.4,0
			c-0.1,0-0.2,0-0.3,0c0,0,0,0-0.1-0.2c-0.4-1.2-2.1-2.6-4.2-4.3c-0.5-0.4-1.2-0.9-1.4-1.2c0.1-0.7,0.1-1.5-0.4-2.1
			c-0.2-0.3-0.6-0.6-1.4-0.6c-0.1,0-0.2,0-0.5,0c-0.5,0-1.6-0.2-3-0.5c-3.7-0.8-10.7-2.2-21.1-2.4c-15.2-0.3-27.1,10.6-27.6,11.1
			l-0.4,0.3c-0.6,0.3-2.6,1-8.6,2.2c-8.5,1.7-10.1,4.4-10.5,5.4c-0.7,0.5-1.8,1.7-2,3.1c-0.1,1.1-0.5,1.6-0.5,1.6l-0.1,0.2v8l0,0.1
			c0.5,2.1,2.7,3.3,6.4,3.3c1.2,0,2.1-0.1,2-0.1c0.1,0,0.5,0,1.3,0c-0.1-0.2-0.2-0.5-0.2-0.7c-0.1-0.2-0.1-0.5-0.2-0.7
			c-0.1-0.5-0.2-1.1-0.2-1.7c0-4.9,4-8.9,8.9-8.9c4.9,0,8.9,4,8.9,8.9c0,0.4,0,0.9-0.1,1.3c0,0.2-0.1,0.5-0.1,0.7
			c-0.1,0.2-0.1,0.5-0.2,0.7C44.8,65.1,59,64.8,70,64.5c0-0.2-0.1-0.5-0.1-0.7c0-0.2,0-0.5-0.1-0.7c0-0.2,0-0.3,0-0.5
			c0-4.9,4-8.9,8.9-8.9c4.9,0,8.8,3.9,8.9,8.7c0,0.1,0,0.1,0,0.2c0,0.2,0,0.3,0,0.5c0,0.2,0,0.5-0.1,0.7c2.1-0.3,3.7-1.5,4.6-3.2
			C93.7,57.6,92.9,53.5,92.4,52.6z M61.7,43.6V45H34.4l-1-1.6c-0.7-1.1,6.4-7.6,17.4-9.6c4.7-0.9,10.9-0.1,10.9-0.1V43.6z
			 M79.1,41.6c-0.5,1.4-1.4,2.4-2.2,2.7c-0.8,0.3-12.4,0.7-12.4,0.7v-11c0,0,7.3,0.5,10.9,2.6C78.4,38.3,79.5,40.1,79.1,41.6z"/>
	</g>
</g>
</svg>
