<?xml version="1.0" encoding="utf-8"?>
<!-- Generator: Adobe Illustrator 19.2.1, SVG Export Plug-In . SVG Version: 6.00 Build 0)  -->
<svg version="1.1" id="Layer_1" xmlns="http://www.w3.org/2000/svg" xmlns:xlink="http://www.w3.org/1999/xlink" x="0px" y="0px"
	 viewBox="0 0 100 100" style="enable-background:new 0 0 100 100;" xml:space="preserve">
<style type="text/css">
	.st0{fill:#297385;}
	.st1{fill-rule:evenodd;clip-rule:evenodd;fill:#E02A2D;}
</style>
<g>
	<g>
		<path class="st0" d="M67.5,37.3c3.8,0,6.9-3.1,6.9-6.9c0-3.8-3.1-6.9-6.9-6.9c-3.8,0-6.9,3.1-6.9,6.9
			C60.5,34.2,63.6,37.3,67.5,37.3L67.5,37.3z M67.5,37.3"/>
		<path class="st0" d="M79.2,55.3c-0.6-7.3-1.4-11.2-3.2-13.6c-2.2-3.1-5.6-3.4-8.6-3.4c-3,0-6.4,0.3-8.6,3.4
			c-1.7,2.4-2.6,6.2-3.2,13.6c-0.1,1.2,0.8,2.3,2,2.4c0.1,0,0.1,0,0.2,0c1.1,0,2.1-0.9,2.2-2c0.3-4.5,0.8-7.5,1.5-9.5v9.2
			c0,0.5,0.1,0.9,0.2,1.3v18.6c0,1.4,1.1,2.6,2.6,2.6c1.4,0,2.6-1.1,2.6-2.6V61.1c0.2,0,0.4,0,0.6,0c0.2,0,0.4,0,0.6,0v14.1
			c0,1.4,1.1,2.6,2.6,2.6c1.4,0,2.6-1.1,2.6-2.6V56.6c0.1-0.4,0.2-0.9,0.2-1.3v-9.2c0.7,2,1.1,5,1.5,9.5c0.1,1.2,1.1,2.1,2.4,2
			C78.4,57.5,79.3,56.5,79.2,55.3L79.2,55.3z M79.2,55.3"/>
		<path class="st0" d="M32.5,37.3c3.8,0,6.9-3.1,6.9-6.9c0-3.8-3.1-6.9-6.9-6.9c-3.8,0-6.9,3.1-6.9,6.9
			C25.6,34.2,28.7,37.3,32.5,37.3L32.5,37.3z M32.5,37.3"/>
		<path class="st0" d="M41.1,41.7c-2.2-3.1-5.6-3.4-8.6-3.4s-6.4,0.3-8.6,3.4c-1.7,2.4-2.6,6.2-3.2,13.6c-0.1,1.2,0.8,2.3,2,2.4
			c1.2,0.1,2.3-0.8,2.4-2c0.3-4.5,0.8-7.5,1.5-9.5v6.6l-2.2,9.8c0,0.2,0,0.4,0.1,0.5c0.1,0.2,0.3,0.2,0.5,0.2h1.7v11.9
			c0,1.4,1.1,2.6,2.6,2.6c1.4,0,2.6-1.1,2.6-2.6V63.3h1.2v11.9c0,1.4,1.1,2.6,2.6,2.6c1.4,0,2.6-1.1,2.6-2.6V63.3H40h0
			c0.4,0,0.6-0.3,0.6-0.6c0-0.1,0-0.1,0-0.2l-2.2-9.7v-6.6c0.7,2,1.1,5,1.5,9.5c0.1,1.2,1.1,2,2.2,2c0.1,0,0.1,0,0.2,0
			c1.2-0.1,2.1-1.1,2-2.4C43.7,47.9,42.8,44.1,41.1,41.7L41.1,41.7z M41.1,41.7"/>
		<path class="st0" d="M50,22.2c-1.1,0-2,0.9-2,2v50.1c0,1.1,0.9,2,2,2c1.1,0,2-0.9,2-2V24.3C52,23.1,51.1,22.2,50,22.2L50,22.2z
			 M50,22.2"/>
	</g>
</g>
</svg>
