<?xml version="1.0" encoding="utf-8"?>
<!-- Generator: Adobe Illustrator 19.2.1, SVG Export Plug-In . SVG Version: 6.00 Build 0)  -->
<svg version="1.1" id="Layer_1" xmlns="http://www.w3.org/2000/svg" xmlns:xlink="http://www.w3.org/1999/xlink" x="0px" y="0px"
	 viewBox="0 0 200 200" style="enable-background:new 0 0 200 200;" xml:space="preserve">
<style type="text/css">
	.st0{fill:#FFFFFF;}
</style>
<g>
	<path class="st0" d="M148.8,2.4h-25.3C95,2.3,76.6,21.2,76.6,50.4v22.2H51.2c-2.2,0-4,1.8-4,4v32.1c0,2.2,1.8,4,4,4h25.5v81
		c0,2.2,1.8,4,4,4h33.2c2.2,0,4-1.8,4-4v-81h29.8c2.2,0,4-1.8,4-4V76.6c0-1.1-0.4-2.1-1.2-2.8c-0.7-0.7-1.8-1.2-2.8-1.2h-29.8V53.8
		c0-9,2.2-13.6,13.9-13.6h17.1c2.2,0,4-1.8,4-4V6.4C152.8,4.2,151,2.4,148.8,2.4z"/>
</g>
</svg>
