<?xml version="1.0" encoding="utf-8"?>
<!-- Generator: Adobe Illustrator 19.2.1, SVG Export Plug-In . SVG Version: 6.00 Build 0)  -->
<svg version="1.1" id="Layer_1" xmlns="http://www.w3.org/2000/svg" xmlns:xlink="http://www.w3.org/1999/xlink" x="0px" y="0px"
	 viewBox="0 0 300 147" style="enable-background:new 0 0 300 147;" xml:space="preserve">
<style type="text/css">
	.st0{fill:#FFFFFF;}
</style>
<g>
	<path class="st0" d="M28.5,69.6C21.4,67.5,2,69.3,0,90.2c-1.1,20.7,17.7,24.1,27.1,19.2l2.6-14.1c0,0-0.1-0.4-0.5,0
		c-5,5.7-14.9,6.1-14.4-5.5c0.4-8,8-12.3,14.7-6.2c0,0,0.2,0,0.1-0.6C29.7,82.6,28.5,69.6,28.5,69.6z"/>
	<path class="st0" d="M184.8,69.6c-7.1-2.1-26.5-0.3-28.5,20.6c-1.1,20.7,17.7,24.1,27.1,19.2l2.6-14.1c0,0-0.1-0.4-0.5,0
		c-5,5.7-14.9,6.1-14.4-5.5c0.4-8,8-12.3,14.7-6.2c0,0,0.2,0,0.1-0.6C186,82.6,184.8,69.6,184.8,69.6z"/>
	<path class="st0" d="M280.1,86.1c-0.9-1.1-3.2-6.4,2.7-6.8c2.5-0.1,4.7,1.1,4.7,1.1l0.4-0.3l1.6-11.4c0,0-8.1-1.7-16.7,2.7
		c-8.6,4.3-8.1,11.5-8.1,11.5c0,5.4,3.7,8.2,4.7,9.5c1,1.3,4.5,4.6,1.9,7c-3.3,2.9-9.8-0.8-9.8-0.8c3.8-11.3-2.1-26.1-12.8-28.6
		c-10.7-2.5-22.9,3.9-24.6,19.1l-0.3,0l0.3-15.8l-12.2-1l-1,12.4l-8.5,2.1l0.2-16.5l-14.9-0.3v0.2l1.1,42.1l13.3-0.7V99.1l7.3-1.2
		l-1.5,13.2l15.1,0.9l0.7-19.5h0.3c0.2,10.8,7,18.7,16.1,19.9c9.2,1.1,18.1-4.3,20.8-12.4l0.4,0.1l4.9,12.1c0,0,13.1,3.9,20-4.8
		c6.9-8.6-1.1-15.9-1.5-16.5C284.3,90.4,281,87.1,280.1,86.1z M243.4,93.8c-3.7,0-6.8-2.9-6.8-6.5c0-3.6,3-6.5,6.8-6.5
		c3.7,0,6.8,2.9,6.8,6.5C250.2,90.9,247.2,93.8,243.4,93.8z"/>
	<path class="st0" d="M146.3,69L132,69.2c0,0-14.8,35.5-15.2,36.3c-0.4,0.7-0.5,0.4-0.5,0.4l-2.1-33.5l-10.8-3.6l-7.1,15.6
		l-6.2-15.2L79.4,71l-10.6,33.9l-10-35.5l-13.8,0l-16.5,38.9l12.4,4.3l4.5-13.2l8.5-0.5l1.1,11.9l15.4-0.8l-0.1-0.5l12.2,0.2
		L86.5,92l0.3,0l3.1,11.1l8-0.5l4.6-9.3l0.5,0c0,0,0.5,17.1,0.4,17.9s0.4,0.8,0.4,0.8l12.5-1.4l0-1.9l11.6,4l4.5-13.1l8.6-0.5
		c0,0,0.7,10.6,0.8,11.3s0.7,0.5,0.7,0.5l14.8-1.1l0-0.1L146.3,69z M45.8,90.6l3.3-8.6l0.3-0.1l1.6,8.6H45.8z M133.1,90.6l3.3-8.6
		l0.3-0.1l1.6,8.6H133.1z"/>
	<polygon class="st0" points="73.8,37.4 64.5,37.4 64.5,63.5 82,64 81.8,56.8 73.3,56.8 	"/>
	<path class="st0" d="M100.5,36.6c-13.7,1-16,10.9-15.9,14.9c0.1,4.1,4.3,13.2,16.5,12.6c14.2-1.6,15.5-10,15.4-14.1
		C117.1,45.3,113.1,35.7,100.5,36.6z M107.2,51.1c-0.2,1.9-1.3,7.1-6.7,7.2c-5.4,0.1-6.2-5.9-6.3-7.9c-0.1-2,0.5-7.8,6.7-7.7
		C107,42.8,107.4,49.2,107.2,51.1z"/>
	<path class="st0" d="M120.8,57.8l1,6.6c0,0,6.9-0.6,11.3-3.4c4.4-2.7,4.8-4.8,4.8-6.8c0-2-2.1-5.3-6.5-6.9c-4.4-1.6-2.9-3.9,1.8-4
		c2.9,0,2.9,0,2.9,0l-1.2-6.6c0,0-6,0.1-10.2,2.7c-3.9,2.4-5.3,4.9-5.2,6.9c0.1,2,1.2,4.9,5.2,6.4c4,1.5,5.5,3.5,0.7,4.6
		c-3,0.6-4.6,0.1-4.6,0.1V57.8z"/>
	<path class="st0" d="M266.5,19.7c0,0-25.4,15.1-10.6,46.1l-0.7,0.8c0,0-12.3-7.8-25.7,1.4L209,66.2l-0.3-1.5L183.3,64
		c0,0-16.8-40.7,23-59.4C244.4-11.4,266.5,19.7,266.5,19.7z"/>
	<path class="st0" d="M265,62.5h-0.6c0,0-13.5-17.9,3.7-34.7c6.9-6.3,18.8-2.3,21.8,3.7c3,6-2.8,7.7-6.2,8.8S267.2,47,265,62.5z"/>
	<path class="st0" d="M288.2,42.1c8-1.1,15,11.3,10.2,15.3c-4.8,4-13.3-3.6-30,5.3C268.4,62.7,274,44,288.2,42.1z"/>
	<path class="st0" d="M83.5,125.1c1.9,0,2,1.9,1.9,2.7c0,0.8-0.3,6.9-0.1,7.9c0.2,0.9,1.2,3.9,4.3,3.9c3.1,0,5.3-2.5,5.6-5.2
		c0.3-2.7,0.4-5.7,0.5-7.2c0-1.5,1.2-2.2,2.4-2.1c1.1,0,2.2,1.1,2.2,2.4c0,1.2,0.7,15.1-10.5,15.4c-9.2,0.2-8.9-9.5-8.9-9.5
		s0.1-4.6,0.2-6.1C81.2,125.6,82.6,125.1,83.5,125.1z"/>
	<path class="st0" d="M174.3,125.1c1.9,0,2,1.9,1.9,2.7c0,0.8-0.3,6.9-0.1,7.9c0.2,0.9,1.2,3.9,4.3,3.9s5.3-2.5,5.6-5.2
		c0.3-2.7,0.4-5.7,0.5-7.2s1.2-2.2,2.4-2.1c1.1,0,2.2,1.1,2.2,2.4c0,1.2,0.7,15.1-10.5,15.4c-9.2,0.2-8.9-9.5-8.9-9.5
		s0.1-4.6,0.2-6.1S173.4,125.1,174.3,125.1z"/>
	<path class="st0" d="M119,126.1c0-1.5-1.4-1.9-2.5-2c-1.1-0.1-10.7-0.3-10.7-0.3s-2.6,0-2.9,2.4c-0.2,2.4-0.5,12.4-0.5,12.4
		s-0.2,3.6,3.2,4c3.4,0.4,8.3,0.4,10.3,0.4s2.2-1.4,2.1-1.8c0-0.4,0-1.8-1.8-1.9s-9.1,0-9.1,0v-4.2c0,0,7.7-0.3,9-0.4
		c1.3-0.1,1.9-1,2-2c0-1-1-1.7-2.2-1.7s-8.6,0.4-8.6,0.4l0.1-3.7c0,0,3.2-0.6,8.8,0c1.4,0.2,2.6,0,2.8-1.4"/>
	<path class="st0" d="M34.6,139.2c0,0-3.3-9.7-3.8-11.7c-0.4-2-1.3-2-1.8-2.1s-1,0-2.4,1.5c-1.4,1.5-6.1,7.5-6.1,7.5l-0.3,0.2
		c-2.2-0.1-2,0.9-1.4,2c-1.2,1.7-3.2,3.9-1.4,5c2,1.3,3.4-1,3.4-1l1.9-3.1l6.7-0.2c0,0,0.9,1.8,1.6,3.4c0.7,1.5,1.7,1.9,3.1,1.2
		S34.6,139.2,34.6,139.2z M28,134.3c-0.3,0-1.3,0.2-2.2-0.2c-0.1-0.1-0.1-0.3,0.1-0.4c0.2-0.1,1.2-1.6,1.3-1.9
		c0.2-0.3,0.3-0.1,0.4,0.1c0.1,0.2,0.8,1.7,0.8,2.2C28.3,134.2,28.2,134.3,28,134.3z"/>
	<path class="st0" d="M150.9,139.2c0,0-3.3-9.7-3.8-11.7c-0.4-2-1.3-2-1.8-2.1c-0.5,0-1,0-2.4,1.5c-1.4,1.5-6.1,7.5-6.1,7.5
		l-0.3,0.2c-2.2-0.1-2,0.9-1.4,2c-1.2,1.7-3.2,3.9-1.4,5c2,1.3,3.4-1,3.4-1l1.9-3.1l6.7-0.2c0,0,0.9,1.8,1.6,3.4
		c0.7,1.5,1.7,1.9,3.1,1.2S150.9,139.2,150.9,139.2z M144.3,134.3c-0.3,0-1.3,0.2-2.2-0.2c-0.1-0.1-0.1-0.3,0.1-0.4s1.2-1.6,1.3-1.9
		c0.2-0.3,0.3-0.1,0.4,0.1c0.1,0.2,0.8,1.7,0.8,2.2C144.6,134.2,144.5,134.3,144.3,134.3z"/>
	<path class="st0" d="M211.1,139.2c0,0-3.3-9.7-3.8-11.7c-0.4-2-1.3-2-1.8-2.1c-0.5,0-1,0-2.4,1.5c-1.4,1.5-6.1,7.5-6.1,7.5
		l-0.3,0.2c-2.2-0.1-2,0.9-1.4,2c-1.2,1.7-3.2,3.9-1.4,5c2,1.3,3.4-1,3.4-1l1.9-3.1l6.7-0.2c0,0,0.9,1.8,1.6,3.4
		c0.7,1.5,1.7,1.9,3.1,1.2S211.1,139.2,211.1,139.2z M204.5,134.3c-0.3,0-1.3,0.2-2.2-0.2c-0.1-0.1-0.1-0.3,0.1-0.4
		c0.2-0.1,1.2-1.6,1.3-1.9c0.2-0.3,0.3-0.1,0.4,0.1c0.1,0.2,0.8,1.7,0.8,2.2C204.9,134.2,204.8,134.3,204.5,134.3z"/>
	<path class="st0" d="M79.7,143.9c-0.9-0.6-3-1.9-3.6-2.3c-0.6-0.4-0.3-0.8-0.3-0.8s4.8-2.4,3.1-8.9c-1.7-6.5-10.6-7.6-14.2-6.8
		c-4,1.1-9.9,4.1-9.4,9.8c1.1,7.2,8.2,9.4,16.3,8c0,0,4.1,2.9,5.2,3.5c1.1,0.6,2.5,0.1,2.9-0.3C80.3,145.8,80.6,144.5,79.7,143.9z
		 M71.9,138.8c-0.3,0-0.6-0.1-0.6-0.1s-1.7-1.7-2.9-2.6c-1.2-0.9-2.2-0.3-2.7,0.1c-0.4,0.2-1.1,1.4-0.1,2.3c1,0.8,0.7,1.1,0.6,1.2
		c-2.6,0.4-6.5-1.4-6.5-5.2c0-3.8,3.5-5.5,7.3-6.2c3.4-0.5,7.6,1,8.1,4.9C75.5,137.2,72.2,138.7,71.9,138.8z"/>
	<path class="st0" d="M53.5,139.1c-0.9-0.5-4.2-2.7-4.2-2.7s-0.4-0.3-0.2-0.5c2.7-0.7,3.7-2.2,4-4c0.2-1.9-1.2-3.8-2.6-4.5
		c-1.4-0.7-8.1-2.7-9.8-2.9c-1.7-0.2-3.1,0.8-3.1,2.3c0.1,6.3-0.2,12-0.3,13.2c-0.1,1.2,0.5,2.4,2.2,2.5c1.4,0,2.3-0.9,2.2-2.2
		c0,0,0-1.4,0-2c0-0.6,0.5-0.5,0.5-0.5s6.9,3.1,8.7,3.9c1.8,0.8,2.4,0.4,3.1-0.3C54.9,140.8,54.4,139.6,53.5,139.1z M44.7,133.4
		c-1.1,0-2.6,0.1-2.6,0.1l-0.2-4.9c0,0,0-0.3,0.4-0.2s6.2,0.6,6.6,2.7C49.3,133.1,45.9,133.4,44.7,133.4z"/>
	<path class="st0" d="M3.7,124.4c-0.5,0.1-2,0.5-2,2.3c0,1.8-0.7,9.7-0.9,11.1s-0.4,5.1,2.1,4.8c2.5-0.3,1.9-2.7,1.9-2.7l0.1-3.9
		c0,0,9.7-0.1,9.7-5.4C14.7,123.6,4.2,124.3,3.7,124.4z M5.3,132.5c0,0-0.2-3.7,0.1-4.7c0.3-1,5.6-0.1,5.4,2
		C10.6,132,7.9,132.9,5.3,132.5z"/>
	<path class="st0" d="M169.4,129.9c1.6-0.7,1.1-2.2,1.1-2.6c-0.1-0.4-0.5-3-3.2-2.3c-0.3,0.1-0.4,0.1-1.9,0.1
		c-1.5,0-6.8,0.7-10.1,5.4c-3.3,4.7-2.4,11.5,4.9,11.7c7.2,0.2,10.5-3.6,9.1-5.1c-1.4-1.5-3.6,0.2-4.4,0.5c-0.6,0.3-5,2.3-6.8,0.1
		c-1.8-2.2,1.5-6.7,3.8-7.9c2.3-1.2,3.9-1.7,5-0.6C167.9,130.2,168.7,130.2,169.4,129.9z"/>
	<path class="st0" d="M265.5,130c1.6-0.7,1.1-2.2,1.1-2.6c-0.1-0.4-0.5-3-3.2-2.3c-0.3,0.1-0.4,0.1-1.9,0.1c-1.5,0-6.8,0.7-10.1,5.4
		s-2.4,11.5,4.9,11.7s10.5-3.6,9.1-5.1c-1.4-1.5-3.6,0.2-4.4,0.5c-0.6,0.3-5,2.3-6.8,0.1c-1.8-2.2,1.5-6.7,3.8-7.9
		c2.3-1.2,3.9-1.7,5-0.6C264.1,130.3,264.9,130.3,265.5,130z"/>
	<path class="st0" d="M223.3,142c-1.1,0.1-2.2-0.5-2.4-2.4c-0.1-1.9-0.5-9.7-0.5-10s0.5-0.8-1-0.9c-1.5-0.1-3.2-0.2-4.8-0.4
		c-1.6-0.2-1.5-1.8-1.4-2.2s0.4-1.3,2-1.3c1.6,0,15.8,0.4,15.8,0.4s2.2-0.1,2.3,1.3c0.1,0.1,0.3,0.2,0.4,0s0.5-1.4,1.9-1.4
		c1.4,0,11.1,0,11.3,0.1c0.2,0,1.9,0.4,1.6,2.3c-0.2,1.8-2.7,1.4-2.7,1.4l-2.7-0.1l-0.2,9.3l0,0.2c0,0,2.4,0,3.4,0.1
		c1,0,2.1,0.9,2.2,1.7c0.1,0.8-0.5,1.7-1.9,1.8c-1.4,0.1-10.9,0.4-11.6,0.5c-0.7,0.1-1.4-0.6-1.3-2c0.2-1.4,1.5-1.6,2.2-1.6
		c0.7,0,2.3,0,2.3,0s0.1-8.7,0.2-10.1c-0.4,0-2.7,0-3.1,0c-0.4,0-1.1-0.2-1.3-0.8s-0.8-0.3-0.8-0.2s-0.5,1-1.6,1.1s-6.1,0-6.1,0
		s-0.5,0-0.5,0.6s0.4,8.9,0.4,8.9C225.6,140.5,225.2,141.8,223.3,142z"/>
	<path class="st0" d="M280,124.8c-4.4,0.2-10.4,1.7-12.2,8.1c-1.9,6.4,5.2,9.7,7.9,9.9c2.7,0.2,9.2,0.1,12.6-6.1
		S287.5,124.5,280,124.8z M284.8,133.3c-0.1,1.3-1,5.2-6.7,5.7c-5.7,0.5-5.9-3.8-5.4-5.4c0.5-1.7,1.9-4.9,7.4-5.2
		C284.6,128,284.9,132,284.8,133.3z"/>
</g>
</svg>
