<?xml version="1.0" encoding="utf-8"?>
<!-- Generator: Adobe Illustrator 16.0.0, SVG Export Plug-In . SVG Version: 6.00 Build 0)  -->
<!DOCTYPE svg PUBLIC "-//W3C//DTD SVG 1.1//EN" "http://www.w3.org/Graphics/SVG/1.1/DTD/svg11.dtd">
<svg version="1.1" id="Layer_1" xmlns="http://www.w3.org/2000/svg" xmlns:xlink="http://www.w3.org/1999/xlink" x="0px" y="0px"
	 width="800px" height="800px" viewBox="886.455 0 800 800" enable-background="new 886.455 0 800 800" xml:space="preserve">
<g>
	<path fill="#297385" d="M273.182,272.07c-29.938,4.306-67.232,24.471-79.431,26.277c0,0,12.829,36.669,20.766,48.273
		c7.955,11.629,11.005,26.896,14.072,39.737c3.044,12.817,11.599,37.881,11.599,47.655s29.326-0.594,34.826,21.997
		c5.505,22.614,9.154,17.121,14.666,58.046c2.976,22.195,9.328,45.824,10.33,70.716c10.17-0.247,24.365-0.816,33.051-2.277
		c14.678-2.448,66.539,0,66.539,0s51.875-2.448,66.534,0c10.207,1.708,27.898,2.228,37.833,2.377
		c0.928-25.091,7.348-48.918,10.354-71.285c5.519-40.926,9.155-35.456,14.673-58.047c5.493-22.614,34.814-12.223,34.814-21.997
		c0-9.772,8.561-34.813,11.604-47.655c3.055-12.816,6.111-28.108,14.078-39.737c7.918-11.58,20.759-48.274,20.759-48.274
		c-12.223-1.831-49.485-21.971-79.425-26.277c-29.938-4.28-56.834-14.054-56.834-14.054c1.83,10.392-9.154,17.716-15.886,34.813
		c-6.718,17.122-15.885,29.345-23.827,47.086c-7.954,17.691-25.059,43.968-32.383,46.417v0.347
		c-7.459-2.845-24.297-28.776-32.153-46.318c-7.96-17.716-17.115-29.939-23.84-47.062c-6.704-17.098-17.722-24.446-15.872-34.838
		C329.998,258.016,303.121,267.814,273.182,272.07z"/>
	<path fill="#E02A2D" d="M400,100c-165.6,0-300,134.4-300,300c0,165.6,134.4,300,300,300s300-134.4,300-300
		C700,234.4,565.6,100,400,100L400,100z M244,211.2c42.4-35.2,96.8-56,156-56c135.2,0,244.8,109.6,244.8,244.8
		c0,59.2-20.8,113.6-56,156L244,211.2L244,211.2z M556,588.8c-42.4,35.2-96.8,56-156,56c-135.2,0-244.8-109.6-244.8-244.8
		c0-59.2,20.8-113.6,56-156L556,588.8z"/>
</g>
<g>
	<g id="sound-on">
		<path id="XMLID_138_" fill="#297385" d="M1272.243,267.464c0.05-9.537-6.066-12.499-13.576-6.642l-79.515,60.918
			c-2.816,2.197-5.454,7.952-7.633,7.952h-59.755c-9.53,0-17.61,9.72-17.61,19.251v116.088c0,9.53,8.08,16.827,17.61,16.827h58.353
			c2.607,3.049,6.104,8.882,9.941,11.336l76.142,48.987c8.024,5.149,14.623,1.63,14.672-7.901L1272.243,267.464z"/>
		<path id="XMLID_137_" fill="#297385" d="M1371.528,223.863l-5.41-3.373c-1.922-1.206-4.886,0.055-6.599,2.797l-9.506,15.229
			c-1.715,2.748-1.537,5.95,0.385,7.162l6.758,4.211c0.098,0.067,0.208,0.092,0.306,0.128
			c50.317,30.998,83.872,86.547,83.872,149.969c0,66.482-36.885,124.321-91.284,154.272c-0.3,0.061-0.581,0.153-0.857,0.306
			l-6.947,3.881c-1.988,1.108-2.308,4.316-0.723,7.155l8.796,15.744c1.586,2.853,4.481,4.254,6.472,3.146l6.145-3.428l0,0
			c64.347-34.763,108.076-102.806,108.076-181.077C1471.011,325.266,1431.131,259.892,1371.528,223.863z"/>
		<path id="XMLID_136_" fill="#297385" d="M1402.281,400.403c0-57.667-31.193-108.026-77.604-135.18l-0.031,0.042l-0.092-0.055
			c-1.928-1.2-4.549-0.496-5.846,1.598l-7.203,11.539c-1.299,2.081-0.784,4.75,1.15,5.949l6.219,3.875
			c36.61,23.922,60.819,65.233,60.819,112.231c0,49.08-26.418,91.965-65.79,115.299c-0.195,0.074-0.392,0.141-0.582,0.245
			l-6.947,3.881c-1.996,1.102-2.613,3.765-1.408,5.932l6.709,12.003c1.205,2.18,3.796,3.03,5.791,1.935l6.953-3.887
			c0.209-0.116,0.393-0.263,0.576-0.41C1371.235,508.186,1402.281,457.931,1402.281,400.403z"/>
	</g>
	<path fill="#E02A2D" d="M1286.455,100c-165.6,0-300,134.4-300,300c0,165.6,134.4,300,300,300s300-134.4,300-300
		C1586.455,234.4,1452.055,100,1286.455,100L1286.455,100z M1130.455,211.2c42.4-35.2,96.8-56,156-56
		c135.2,0,244.8,109.6,244.8,244.8c0,59.2-20.8,113.6-56,156L1130.455,211.2L1130.455,211.2z M1442.455,588.8
		c-42.4,35.2-96.8,56-156,56c-135.2,0-244.8-109.6-244.8-244.8c0-59.2,20.8-113.6,56-156L1442.455,588.8z"/>
</g>
</svg>
