<?xml version="1.0" encoding="utf-8"?>
<!-- Generator: Adobe Illustrator 19.2.1, SVG Export Plug-In . SVG Version: 6.00 Build 0)  -->
<svg version="1.1" id="Layer_1" xmlns="http://www.w3.org/2000/svg" xmlns:xlink="http://www.w3.org/1999/xlink" x="0px" y="0px"
	 viewBox="0 0 200 100" style="enable-background:new 0 0 200 100;" xml:space="preserve">
<style type="text/css">
	.st0{fill:#373435;}
	.st1{fill:#3D9C49;}
	.st2{clip-path:url(#SVGID_2_);}
	.st3{fill:#FFFFFF;}
	.st4{fill:#CA3438;}
	.st5{fill:#19337D;}
	.st6{fill:#F1B900;}
	.st7{fill:#35818D;}
	.st8{fill:#F08600;}
	.st9{fill:#162D6F;}
	.st10{fill:#007DC2;}
	.st11{fill:#FCBA30;}
</style>
<g>
	<g>
		<path class="st8" d="M34.3,44.5L20,30c-0.4,1.4-0.9,2.9-1.4,4.6l14.5,14.2L34.3,44.5z"/>
		<path class="st8" d="M38.8,32.3L38.8,32.3L27.3,20.5c-1.1,0.4-2.2,1.1-3.3,2.1l12.8,13.7C36.7,36.2,37.1,33.7,38.8,32.3z"/>
		<path class="st8" d="M30.6,57.1L16.2,42.9c-0.6,1.9-1.1,3.8-1.6,5.4l14.9,12.7L30.6,57.1z"/>
		<path class="st8" d="M36.4,37.5L22.7,23.9c-0.7,0.9-1.3,2-1.8,3.4c-0.1,0.4-0.3,0.9-0.5,1.4l14.5,13.7L36.4,37.5z"/>
		<path class="st8" d="M41.7,31.3c1,0,2.2,0,3.6,0L35.3,19.7l-4.7,0c0,0-0.6,0-1.6,0.3l11,11.7C40.5,31.4,41.1,31.3,41.7,31.3z"/>
		<path class="st8" d="M56.1,31.3L44.6,19.7l-7,0L48,31.3C52,31.3,56.1,31.3,56.1,31.3z"/>
		<path class="st8" d="M32.6,50.6L18.1,36.4c-0.4,1.5-0.9,3-1.3,4.4L31.3,55L32.6,50.6z"/>
		<path class="st8" d="M14.3,49.4c-0.8,2.9-1.4,4.9-1.4,4.9l14.4,14.3l1.5-5.1L14.3,49.4z"/>
		<path class="st9" d="M56.6,32l-0.5,1.5l13.5,15.7c0.6-2.2,1-3.5,1-3.5L56.6,32z"/>
		<path class="st9" d="M27.4,68.8L39,80.4h5.4L30.2,68.8C28.6,68.8,27.4,68.8,27.4,68.8z"/>
		<path class="st9" d="M47.6,61.1L34.3,49.2l12.9,13.4l1.3,1.3l-0.9,1.5l11.9,12.3c1-0.8,1.9-2,2.6-3.4L47.6,61.1L47.6,61.1z"/>
		<path class="st9" d="M49.3,54.9L35.6,42.7l14,14.9l-0.2,2.2l13.2,13.3c0-0.1,0.1-0.3,0.2-0.4c0.4-1.1,0.8-2.4,1.2-3.9L49.3,54.9
			L49.3,54.9z"/>
		<path class="st9" d="M30.3,61.7l6.9,7.4l-1.8,0.3L46,80.4h6L39,68.8C38,68.2,31,61.7,30.3,61.7z"/>
		<path class="st9" d="M31.9,55.5l12.7,12.4c0,0,0,0,0,0l0.4,0.4l-1.3,1l10.2,11c0.9-0.2,2.7-0.6,4.5-1.8L45.4,67.1L31.9,55.5z"/>
		<path class="st9" d="M36.9,36.3l13.6,14.5l0,0l0.5,0.6l0.1,2.2l13.2,13.5c0.4-1.3,0.8-2.6,1.2-4L51,49.2L36.9,36.3z"/>
		<path class="st9" d="M41.1,32.2l11.2,12.4l0,0l0.4,0.4v2.6L66,61.6c0.4-1.4,0.8-2.8,1.2-4.2L52.8,43L41.1,32.2z"/>
		<path class="st9" d="M48.4,31.9l6.1,6.9v2.1l13.3,14.5c0.4-1.6,0.9-3.1,1.2-4.4L54.5,36.7L48.4,31.9z"/>
	</g>
	<polygon class="st9" points="83.9,46.1 76.1,46.1 69.4,68.7 77.7,68.7 	"/>
	<path class="st9" d="M106.8,46.1l-4,13.4c-0.5-1.9-2.2-9.2-2.7-11.3c-0.5-2.3-2.9-2.1-3.5-2.1h-7.2l-6.7,22.6h8.2l3.9-14.1
		c0.9,3.5,3.2,11.8,3.5,13.1c0.3,1.3,2.2,1,2.2,1h7.8l6.2-22.6H106.8z"/>
	<path class="st9" d="M127.8,46.1L127.8,46.1l-5.6,0c-1.3,0-2.4,0.9-2.8,2.1l-6,20.5h8.2l2.2-7.8H134l1.5-5l0-0.1l-10.4,0l1.3-4.6
		h10.3l1.5-5l0-0.1L127.8,46.1z"/>
	<path class="st9" d="M187.1,68.6L185.4,46h-11.9c0,0-1.6,0.1-2.6,2.6S162.1,64,162.1,64h-2.2c0,0-0.8-0.1-1.3-1.4
		c-0.3-0.8-0.7-2.2-0.9-3.1l0.2-0.1c4.7-1.7,5-4.9,5.3-7.4s-0.7-6-4.4-6h-8.7h-0.5h-7.4l-6.7,22.6h8.2l4.9-17.6h3.6
		c0,0,3.6-0.2,3.2,3.1c-0.3,3.3-3.2,3.2-3.2,3.2h-3l1,2.8l2,6.6c0,0,0.7,2,2.9,2c2.2,0,12.2,0,12.2,0l10.8-17.9h0.4v17.7H187.1z"/>
</g>
</svg>
