<?xml version="1.0" encoding="utf-8"?>
<!-- Generator: Adobe Illustrator 19.2.1, SVG Export Plug-In . SVG Version: 6.00 Build 0)  -->
<svg version="1.1" id="Layer_1" xmlns="http://www.w3.org/2000/svg" xmlns:xlink="http://www.w3.org/1999/xlink" x="0px" y="0px"
	 viewBox="0 0 200 100" style="enable-background:new 0 0 200 100;" xml:space="preserve">
<style type="text/css">
	.st0{fill:#373435;}
	.st1{fill:#3D9C49;}
	.st2{clip-path:url(#SVGID_2_);}
	.st3{fill:#FFFFFF;}
	.st4{fill:#CA3438;}
	.st5{fill:#19337D;}
	.st6{fill:#F1B900;}
	.st7{fill:#35818D;}
</style>
<g>
	<path class="st4" d="M6.2,73.9l3.6-2.8c0,0,4.8,2.9,6.2,1.5c1.2-1.3-2.5-1.4-4.2-2.5c-2.2-1.5-2.3-5.5,5.3-6
		c7.7-0.5,8.2,1.4,8.2,1.4l-3.3,2.6c0,0-3-2-4.6-1c-1.5,1.2,6.1,1.6,5.4,4.1C22.3,74.1,15.7,78,6.2,73.9z"/>
	<path class="st4" d="M30.4,73.9l3.6-2.8c0,0,4.8,2.9,6.2,1.5c1.2-1.3-2.5-1.4-4.2-2.5c-2.2-1.5-2.3-5.5,5.3-6
		c7.7-0.5,8.2,1.4,8.2,1.4l-3.3,2.6c0,0-3-2-4.6-1c-1.5,1.2,6.1,1.6,5.4,4.1C46.5,74.1,39.9,78,30.4,73.9z"/>
	<path class="st4" d="M21.8,75.1l5.9-10.8h6.7l-5.8,10.8C28.6,75.1,21.7,75,21.8,75.1z"/>
	<path class="st4" d="M66.1,64.2H51.4l-1.7,3.2H54l-4.2,7.7c-0.1-0.1,6.8,0,6.8,0l4.1-7.7h3.7L66.1,64.2z"/>
	<path class="st4" d="M78,67.1l1.6-2.8h-5.8l0,0h-6.7l-5.9,10.8c1.1,0,3.8,0,5.5,0l0,0h7.7l1.6-2.8h-6.4l0.7-1.2h5.5l1.6-2.8h-5.6
		l0.6-1.1H78z"/>
	<path class="st4" d="M188.7,67.1l1.6-2.8h-5.8l0,0h-6.7l-5.9,10.8c1.1,0,3.8,0,5.5,0l0,0h7.7l1.6-2.8h-6.4l0.7-1.2h5.5l1.6-2.8
		h-5.6l0.6-1.1H188.7z"/>
	<path class="st4" d="M94.5,64.6l-1.9,3.6c0,0-1.2-1.1-3.1-1.1s-4.4,0.5-5.2,2.3c-0.8,1.8,1.4,2.7,3.2,2.5c1.8-0.2,3.2-0.7,3.2-0.7
		l-2.1,3.9c0,0-12.6,1.8-11.2-4.8C78.8,63.7,90.8,63.1,94.5,64.6z"/>
	<path class="st4" d="M105.3,63.9c-5,0-11.5,1.6-12.5,6.4c-0.9,4.4,4.3,5.1,8,5.1c5,0,11.5-1.6,12.5-6.4
		C114.2,64.6,108.9,63.9,105.3,63.9z M106.4,69.9c-0.4,1-1.3,1.5-2.4,1.9c-0.4,0.1-0.7,0.1-1.1,0.2c-1.8,0.2-4-0.7-3.2-2.5
		c0.4-1,1.3-1.5,2.4-1.9c0.4-0.1,0.7-0.1,1.1-0.2C105,67.2,107.2,68.1,106.4,69.9z"/>
	<path class="st4" d="M141.5,63.9c-5,0-11.5,1.6-12.5,6.4c-0.9,4.4,4.3,5.1,8,5.1c5,0,11.5-1.6,12.5-6.4
		C150.3,64.6,145.1,63.9,141.5,63.9z M142.6,69.9c-0.4,1-1.3,1.5-2.4,1.9c-0.4,0.1-0.7,0.1-1.1,0.2c-1.8,0.2-4-0.7-3.2-2.5
		c0.4-1,1.3-1.5,2.4-1.9c0.4-0.1,0.7-0.1,1.1-0.2C141.2,67.2,143.4,68.1,142.6,69.9z"/>
	<path class="st4" d="M114.4,67.4l1.9-3.1h16.1l-10.2,7.6h5.5l-1.8,3.1h-16l11.1-7.5C121,67.5,114.4,67.2,114.4,67.4z"/>
	<path class="st4" d="M146.4,75l8.2-10.8h6.2l0.1,5.7l5.8-5.8h6.5L169.9,75h-5.9l1.6-5.2l-5.4,5.4h-3.8l-0.3-5.2l-3.8,5.1
		C152.4,75,146.4,74.9,146.4,75z"/>
	<path class="st5" d="M193.8,57.2c0.1-0.1-67.1,0-70.1,0c6.6-3.8,10.6-9.5,10.6-14.7c0-8.7-10.8-17.7-21.3-17.7s-14.4,1.2-15.5,5.7
		c-1,4,6.5,6,10.8,6.7c4.3,0.7,14.7,4,14.7,12c0,8.3-11.7,11.4-15.3,12.1c-0.2,0-0.3,0-0.3,0h0.2c-0.6,0.1-0.9,0.2-0.9,0.2
		c1.2,0,2.4-0.1,3.5-0.2h81.2L193.8,57.2z"/>
	<path class="st6" d="M96.2,48.7c-4.3-0.7-14.7-4-14.7-12c0-9.8,16.3-12.3,16.3-12.3c-16.5,0-27.7,10.3-27.7,19
		c0,5,3.6,10.1,8.6,13.5c-5.6,0-60.8,0-64.3,0l-3,4.2h81.6c0,0-0.1,0-0.2,0c9.4-0.1,13-1.4,14.1-5.7C108,51.3,100.5,49.3,96.2,48.7z
		"/>
</g>
</svg>
