<?xml version="1.0" encoding="utf-8"?>
<!-- Generator: Adobe Illustrator 19.2.1, SVG Export Plug-In . SVG Version: 6.00 Build 0)  -->
<svg version="1.1" id="Layer_1" xmlns="http://www.w3.org/2000/svg" xmlns:xlink="http://www.w3.org/1999/xlink" x="0px" y="0px"
	 viewBox="0 0 500 27" style="enable-background:new 0 0 500 27;" xml:space="preserve">
<style type="text/css">
	.st0{fill:#A7C9D5;}
</style>
<path class="st0" d="M492.1,16.5c-1.4-0.1-2.7-0.8-3.8-1.7c-1.2-1.2-2.2-2.5-3.4-3.6c-1.6-1.7-3.2-3-5.5-3.6
	c-0.4-0.1-0.9-0.3-1.3-0.3h-2.1c-0.4,0.1-0.9,0.1-1.3,0.3c-2.2,0.6-3.9,1.9-5.5,3.6c-1.2,1.3-2.2,2.5-3.4,3.6
	c-1.3,1.2-2.9,1.9-4.5,1.8c-1.6-0.1-2.9-0.8-4-1.9c-1-1-1.9-2.1-2.9-3.2c-1.6-1.7-3.2-3.1-5.5-3.9c-0.5-0.1-1.2-0.3-1.7-0.4h-2.1
	c-0.6,0.1-1.2,0.3-1.8,0.5c-1.9,0.6-3.5,1.8-4.9,3.4c-1,1.2-2.1,2.5-3.2,3.5c-1,1-2.2,1.7-3.6,1.8c-1.6,0.3-3.1-0.3-4.4-1
	c-1.3-0.9-2.2-2.1-3.2-3.2c-1-1.2-2.1-2.3-3.4-3.2c-1.3-0.9-2.7-1.4-4.4-1.6c-0.1,0-0.1,0-0.3-0.1h-1.6c-0.6,0.1-1.3,0.3-1.9,0.4
	c-2.3,0.6-4,2.2-5.5,3.9c-0.9,1-1.8,2.1-2.7,3.1c-0.8,0.8-1.7,1.3-2.9,1.7c-0.8,0.3-1.4,0.1-2.2,0c-1.4-0.5-2.6-1.4-3.5-2.5
	c-0.9-1-1.7-2.1-2.6-3c-1.7-1.8-3.8-3.1-6.4-3.5c0,0-0.1,0-0.1-0.1h-1c-0.3,0-0.6,0-0.9,0c-0.4,0.1-0.9,0.1-1.3,0.3
	c-2.2,0.6-3.9,1.9-5.5,3.6c-1.2,1.3-2.2,2.5-3.4,3.6c-0.1,0.1-0.4,0.3-0.5,0.4c-0.1,0.1-0.3,0.1-0.4,0.3c-0.8,0.5-1.8,0.9-2.9,1
	c-0.1,0-0.1,0-0.2,0.1c-1.3-0.2-2.4-0.8-3.4-1.6c-1.2-1.2-2.2-2.5-3.4-3.6c-1.6-1.7-3.2-3-5.5-3.6c-0.4-0.1-0.9-0.3-1.3-0.3h-2.1
	c-0.4,0.1-0.9,0.1-1.3,0.3c-2.2,0.6-3.9,1.9-5.5,3.6c-1.2,1.3-2.2,2.5-3.4,3.6c-1.3,1.2-2.9,1.9-4.5,1.8c-1.6-0.1-2.9-0.8-4-1.9
	c-1-1-1.9-2.1-2.9-3.2c-1.6-1.7-3.2-3.1-5.5-3.9c-0.5-0.1-1.2-0.3-1.7-0.4h-2.1c-0.6,0.1-1.2,0.3-1.8,0.5c-1.9,0.6-3.5,1.8-4.9,3.4
	c-1,1.2-2.1,2.5-3.2,3.5c-1,1-2.2,1.7-3.6,1.8c-1.6,0.3-3.1-0.3-4.4-1c-1.3-0.9-2.2-2.1-3.2-3.2c-1-1.2-2.1-2.3-3.4-3.2
	c-1.3-0.9-2.7-1.4-4.4-1.6c-0.1,0-0.1,0-0.3-0.1h-1.6c-0.6,0.1-1.3,0.3-1.9,0.4c-2.3,0.6-4,2.2-5.5,3.9c-0.9,1-1.8,2.1-2.7,3.1
	c-0.8,0.8-1.7,1.3-2.9,1.7c-0.8,0.3-1.4,0.1-2.2,0c-1.4-0.5-2.6-1.4-3.5-2.5c-0.9-1-1.7-2.1-2.6-3c-1.7-1.8-3.8-3.1-6.4-3.5
	c0,0-0.1,0-0.1-0.1h-1c-0.3,0-0.6,0-0.9,0c-0.4,0.1-0.9,0.1-1.3,0.3c-2.2,0.6-3.9,1.9-5.5,3.6c-1.2,1.3-2.2,2.5-3.4,3.6
	c-0.1,0.1-0.4,0.3-0.5,0.4c-0.1,0.1-0.3,0.1-0.4,0.3c-0.8,0.5-1.8,0.9-2.8,1c-1.1-0.3-2.2-0.8-3-1.6c-1.2-1.2-2.2-2.5-3.4-3.6
	c-1.6-1.7-3.2-3-5.5-3.6c-0.4-0.1-0.9-0.3-1.3-0.3h-2.1c-0.4,0.1-0.9,0.1-1.3,0.3c-2.2,0.6-3.9,1.9-5.5,3.6
	c-1.2,1.3-2.2,2.5-3.4,3.6c-1.3,1.2-2.9,1.9-4.5,1.8c-1.6-0.1-2.9-0.8-4-1.9c-1-1-1.9-2.1-2.9-3.2c-1.6-1.7-3.2-3.1-5.5-3.9
	c-0.5-0.1-1.2-0.3-1.7-0.4h-2.1c-0.6,0.1-1.2,0.3-1.8,0.5c-1.9,0.6-3.5,1.8-4.9,3.4c-1,1.2-2.1,2.5-3.2,3.5c-1,1-2.2,1.7-3.6,1.8
	c-1.6,0.3-3.1-0.3-4.4-1c-1.3-0.9-2.2-2.1-3.2-3.2c-1-1.2-2.1-2.3-3.4-3.2c-1.3-0.9-2.7-1.4-4.4-1.6c-0.1,0-0.1,0-0.3-0.1h-1.6
	c-0.6,0.1-1.3,0.3-1.9,0.4c-2.3,0.6-4,2.2-5.5,3.9c-0.9,1-1.8,2.1-2.7,3.1c-0.8,0.8-1.7,1.3-2.9,1.7c-0.8,0.3-1.4,0.1-2.2,0
	c-1.4-0.5-2.6-1.4-3.5-2.5c-0.9-1-1.7-2.1-2.6-3c-1.7-1.8-3.8-3.1-6.4-3.5c0,0-0.1,0-0.1-0.1h-1c-0.3,0-0.6,0-0.9,0
	c-0.4,0.1-0.9,0.1-1.3,0.3c-2.2,0.6-3.9,1.9-5.5,3.6c-1.2,1.3-2.2,2.5-3.4,3.6c-0.1,0.1-0.4,0.3-0.5,0.4c-0.1,0.1-0.3,0.1-0.4,0.3
	c-0.8,0.5-1.8,0.9-2.9,1c-0.1,0-0.1,0-0.2,0.1c-1.3-0.2-2.4-0.8-3.4-1.6c-1.2-1.2-2.2-2.5-3.4-3.6c-1.6-1.7-3.2-3-5.5-3.6
	c-0.4-0.1-0.9-0.3-1.3-0.3h-2.1c-0.4,0.1-0.9,0.1-1.3,0.3c-2.2,0.6-3.9,1.9-5.5,3.6c-1.2,1.3-2.2,2.5-3.4,3.6
	c-1.3,1.2-2.9,1.9-4.5,1.8c-1.6-0.1-2.9-0.8-4-1.9c-1-1-1.9-2.1-2.9-3.2c-1.6-1.7-3.2-3.1-5.5-3.9c-0.5-0.1-1.2-0.3-1.7-0.4h-2.1
	c-0.6,0.1-1.2,0.3-1.8,0.5c-1.9,0.6-3.5,1.8-4.9,3.4c-1,1.2-2.1,2.5-3.2,3.5c-1,1-2.2,1.7-3.6,1.8c-1.6,0.3-3.1-0.3-4.4-1
	c-1.3-0.9-2.2-2.1-3.2-3.2c-1-1.2-2.1-2.3-3.4-3.2c-1.3-0.9-2.7-1.4-4.4-1.6c-0.1,0-0.1,0-0.3-0.1h-1.6c-0.6,0.1-1.3,0.3-1.9,0.4
	c-2.3,0.6-4,2.2-5.5,3.9c-0.9,1-1.8,2.1-2.7,3.1c-0.8,0.8-1.7,1.3-2.9,1.7c-0.8,0.3-1.4,0.1-2.2,0c-1.4-0.5-2.6-1.4-3.5-2.5
	c-0.9-1-1.7-2.1-2.6-3c-1.7-1.8-3.8-3.1-6.4-3.5c0,0-0.1,0-0.1-0.1h-1c-0.3,0-0.6,0-0.9,0c-0.4,0.1-0.9,0.1-1.3,0.3
	C18.5,8,16.8,9.3,15.3,11c-1.2,1.3-2.2,2.5-3.4,3.6c-0.1,0.1-0.4,0.3-0.5,0.4c-0.1,0.1-0.3,0.1-0.4,0.3c-0.8,0.5-1.8,0.9-2.9,1
	c-1,0.1-1.6,0.6-1.7,1.4c-0.1,1,0.5,1.8,1.6,1.8c1.8,0.1,3.5-0.5,4.9-1.6c1.2-0.8,2.1-1.8,3-2.9c0.4-0.5,0.9-1,1.3-1.6
	c0.3-0.3,0.5-0.6,0.9-0.9c0.3-0.3,0.5-0.5,0.8-0.8c0.1-0.1,0.3-0.1,0.4-0.3c0.3-0.1,0.4-0.3,0.6-0.4c0.1-0.1,0.3-0.1,0.4-0.3
	c0.3,0,0.4-0.1,0.6-0.1c0.1,0,0.1,0,0.3-0.1c0.5-0.1,0.9-0.3,1.4-0.3c1.7-0.1,3.2,0.5,4.8,1.8c0.5,0.5,1,1,1.4,1.6
	c1.2,1.3,2.3,2.6,3.6,3.8c2.1,1.9,4.7,2.5,7.5,1.8c1.8-0.4,3.2-1.6,4.5-3c1-1.2,2.2-2.5,3.2-3.6c2.7-3,6.5-3.1,9.5-0.4
	c0.5,0.5,1,1,1.4,1.6c1,1.2,2.1,2.5,3.2,3.5c3.1,2.7,7.3,3.1,10.8,1c1.6-0.9,2.9-2.2,4-3.6c1-1.2,1.9-2.5,3.2-3.4
	c1.8-1,3.6-1.4,5.6-0.6c1.2,0.5,2.2,1.3,3.1,2.2c1.2,1.3,2.2,2.6,3.4,3.8c3.6,3.6,8.8,4,12.7,0.8c1.2-0.9,2.1-2.2,3.1-3.2
	c0.8-0.8,1.4-1.7,2.3-2.5c1.3-1,2.7-1.6,4.2-1.6c1.3,0,2.6,0.5,3.8,1.4c0.8,0.6,1.6,1.6,2.2,2.3c1,1.2,2.1,2.3,3.1,3.4
	c1.6,1.4,3.5,2.2,5.7,2.1c0,0,0,0,0,0c1.7,0.1,3.3-0.6,4.7-1.6c1.2-0.8,2.1-1.8,3-2.9c0.4-0.5,0.9-1,1.3-1.6
	c0.3-0.3,0.5-0.6,0.9-0.9c0.3-0.3,0.5-0.5,0.8-0.8c0.1-0.1,0.3-0.1,0.4-0.3c0.3-0.1,0.4-0.3,0.6-0.4c0.1-0.1,0.3-0.1,0.4-0.3
	c0.3,0,0.4-0.1,0.6-0.1c0.1,0,0.1,0,0.3-0.1c0.5-0.1,0.9-0.3,1.4-0.3c1.7-0.1,3.2,0.5,4.8,1.8c0.5,0.5,1,1,1.4,1.6
	c1.2,1.3,2.3,2.6,3.6,3.8c2.1,1.9,4.7,2.5,7.5,1.8c1.8-0.4,3.2-1.6,4.5-3c1-1.2,2.2-2.5,3.2-3.6c2.7-3,6.5-3.1,9.5-0.4
	c0.5,0.5,1,1,1.4,1.6c1,1.2,2.1,2.5,3.2,3.5c3.1,2.7,7.3,3.1,10.8,1c1.6-0.9,2.9-2.2,4-3.6c1-1.2,1.9-2.5,3.2-3.4
	c1.8-1,3.6-1.4,5.6-0.6c1.2,0.5,2.2,1.3,3.1,2.2c1.2,1.3,2.2,2.6,3.4,3.8c3.6,3.6,8.8,4,12.7,0.8c1.2-0.9,2.1-2.2,3.1-3.2
	c0.8-0.8,1.4-1.7,2.3-2.5c1.3-1,2.7-1.6,4.2-1.6c1.3,0,2.6,0.5,3.8,1.4c0.8,0.6,1.6,1.6,2.2,2.3c1,1.2,2.1,2.3,3.1,3.4
	c1.6,1.4,3.5,2.2,5.7,2.1c0.1,0,0.1,0,0.1,0c1.5-0.1,2.9-0.7,4-1.5c1.2-0.8,2.1-1.8,3-2.9c0.4-0.5,0.9-1,1.3-1.6
	c0.3-0.3,0.5-0.6,0.9-0.9c0.3-0.3,0.5-0.5,0.8-0.8c0.1-0.1,0.3-0.1,0.4-0.3c0.3-0.1,0.4-0.3,0.6-0.4c0.1-0.1,0.3-0.1,0.4-0.3
	c0.3,0,0.4-0.1,0.6-0.1c0.1,0,0.1,0,0.3-0.1c0.5-0.1,0.9-0.3,1.4-0.3c1.7-0.1,3.2,0.5,4.8,1.8c0.5,0.5,1,1,1.4,1.6
	c1.2,1.3,2.3,2.6,3.6,3.8c2.1,1.9,4.7,2.5,7.5,1.8c1.8-0.4,3.2-1.6,4.5-3c1-1.2,2.2-2.5,3.2-3.6c2.7-3,6.5-3.1,9.5-0.4
	c0.5,0.5,1,1,1.4,1.6c1,1.2,2.1,2.5,3.2,3.5c3.1,2.7,7.3,3.1,10.8,1c1.6-0.9,2.9-2.2,4-3.6c1-1.2,1.9-2.5,3.2-3.4
	c1.8-1,3.6-1.4,5.6-0.6c1.2,0.5,2.2,1.3,3.1,2.2c1.2,1.3,2.2,2.6,3.4,3.8c3.6,3.6,8.8,4,12.7,0.8c1.2-0.9,2.1-2.2,3.1-3.2
	c0.8-0.8,1.4-1.7,2.3-2.5c1.3-1,2.7-1.6,4.2-1.6c1.3,0,2.6,0.5,3.8,1.4c0.8,0.6,1.6,1.6,2.2,2.3c1,1.2,2.1,2.3,3.1,3.4
	c1.6,1.4,3.5,2.2,5.7,2.1c0,0,0,0,0,0c1.7,0.1,3.3-0.6,4.7-1.6c1.2-0.8,2.1-1.8,3-2.9c0.4-0.5,0.9-1,1.3-1.6
	c0.3-0.3,0.5-0.6,0.9-0.9c0.3-0.3,0.5-0.5,0.8-0.8c0.1-0.1,0.3-0.1,0.4-0.3c0.3-0.1,0.4-0.3,0.6-0.4c0.1-0.1,0.3-0.1,0.4-0.3
	c0.3,0,0.4-0.1,0.6-0.1c0.1,0,0.1,0,0.3-0.1c0.5-0.1,0.9-0.3,1.4-0.3c1.7-0.1,3.2,0.5,4.8,1.8c0.5,0.5,1,1,1.4,1.6
	c1.2,1.3,2.3,2.6,3.6,3.8c2.1,1.9,4.7,2.5,7.5,1.8c1.8-0.4,3.2-1.6,4.5-3c1-1.2,2.2-2.5,3.2-3.6c2.7-3,6.5-3.1,9.5-0.4
	c0.5,0.5,1,1,1.4,1.6c1,1.2,2.1,2.5,3.2,3.5c3.1,2.7,7.3,3.1,10.8,1c1.6-0.9,2.9-2.2,4-3.6c1-1.2,1.9-2.5,3.2-3.4
	c1.8-1,3.6-1.4,5.6-0.6c1.2,0.5,2.2,1.3,3.1,2.2c1.2,1.3,2.2,2.6,3.4,3.8c3.6,3.6,8.8,4,12.7,0.8c1.2-0.9,2.1-2.2,3.1-3.2
	c0.8-0.8,1.4-1.7,2.3-2.5c1.3-1,2.7-1.6,4.2-1.6c1.3,0,2.6,0.5,3.8,1.4c0.8,0.6,1.6,1.6,2.2,2.3c1,1.2,2.1,2.3,3.1,3.4
	c1.6,1.4,3.5,2.2,5.7,2.1c1,0,1.7-0.8,1.6-1.8C493.7,17.1,493.2,16.6,492.1,16.5z"/>
</svg>
