<?xml version="1.0" encoding="utf-8"?>
<!-- Generator: Adobe Illustrator 19.2.1, SVG Export Plug-In . SVG Version: 6.00 Build 0)  -->
<svg version="1.1" id="Layer_1" xmlns="http://www.w3.org/2000/svg" xmlns:xlink="http://www.w3.org/1999/xlink" x="0px" y="0px"
	 viewBox="0 0 200 100" style="enable-background:new 0 0 200 100;" xml:space="preserve">
<style type="text/css">
	.st0{fill:#373435;}
	.st1{fill:#3D9C49;}
	.st2{clip-path:url(#SVGID_2_);}
	.st3{fill:#FFFFFF;}
	.st4{fill:#CA3438;}
	.st5{fill:#19337D;}
	.st6{fill:#F1B900;}
	.st7{fill:#35818D;}
</style>
<g>
	<g>
		<g>
			<path class="st0" d="M83.2,46.9l4.1,11.4h-2.5L84.1,56h-4.4l-0.8,2.3h-2.5l3.8-10.6c0.2-0.5,0.5-0.8,1.1-0.8H83.2z M80.3,54h3.1
				l-1.6-4.8L80.3,54z"/>
			<path class="st0" d="M90.6,48v10.3h-2.2V46.9h1.2C90.2,46.9,90.6,47.4,90.6,48z"/>
			<path class="st0" d="M94.1,50.7c0.6-0.9,1.4-1.4,2.5-1.4c2.4,0.1,3.5,1.6,3.5,4.6c0,2.9-1.4,4.4-4.1,4.5c-2.8,0-4.2-1.3-4.2-4
				v-7.6H93c0.7,0,1.1,0.4,1.1,1.1V50.7z M94.1,53.8c0,1.8,0.6,2.7,1.9,2.7c1.3,0,1.9-0.9,1.9-2.7c-0.1-1.7-0.7-2.5-1.9-2.5
				C94.8,51.3,94.2,52.1,94.1,53.8z"/>
			<path class="st0" d="M105.1,58.5c-2.7-0.1-4-1.6-4-4.7c0-3,1.4-4.5,4.1-4.5c2.8,0,4.1,1.7,4,5.2h-5.7c0.1,1.4,0.7,2,1.8,2
				c0.5,0,1-0.2,1.4-0.6c0.2-0.2,0.5-0.3,0.8-0.3h1.6C108.5,57.5,107.3,58.5,105.1,58.5z M103.4,52.9h3.3c-0.1-1.2-0.7-1.8-1.6-1.8
				C104.2,51.1,103.6,51.7,103.4,52.9z"/>
			<path class="st0" d="M110.2,53.7c0.1-2.9,1.6-4.3,4.6-4.3h0.3v2.3h-0.8c-1.2,0-1.9,0.7-1.9,1.9v4.6h-2.3V53.7z"/>
			<path class="st0" d="M116,53.9c0-2.9,1.4-4.4,4.1-4.5c2.8,0,4.2,1.3,4.2,4v5.2c0,2.2-1.4,3.3-4.2,3.4c-2,0-3.3-0.9-3.8-2.8h2.5
				c0.2,0.6,0.7,0.9,1.6,0.9c1.2,0,1.8-0.7,1.8-2.1c0,0,0,0,0-0.9c-0.6,0.9-1.4,1.3-2.5,1.3C117.1,58.5,116,56.9,116,53.9z
				 M122,53.9c0-1.8-0.6-2.7-1.9-2.7s-1.9,0.9-1.9,2.7c0.1,1.7,0.7,2.6,1.9,2.6C121.3,56.5,121.9,55.7,122,53.9z"/>
			<path class="st0" d="M132.7,54.8c0,1.5-0.4,2.5-1.2,3c-0.8,0.5-1.7,0.7-2.6,0.7c-0.9,0-1.7-0.3-2.5-0.8c-0.8-0.5-1.2-1.5-1.2-2.9
				v-5.3h2.2v5.8c0,1,0.5,1.5,1.5,1.5c1,0,1.5-0.5,1.5-1.5v-4.7c0-0.7,0.3-1.1,1.1-1.1h1.1V54.8z"/>
			<path class="st0" d="M137.6,58.5c-2.7-0.1-4-1.6-4-4.7c0-3,1.4-4.5,4.1-4.5c2.8,0,4.1,1.7,4,5.2h-5.7c0.1,1.4,0.7,2,1.8,2
				c0.5,0,1-0.2,1.4-0.6c0.2-0.2,0.5-0.3,0.8-0.3h1.6C141,57.5,139.8,58.5,137.6,58.5z M135.9,52.9h3.3c-0.1-1.2-0.7-1.8-1.6-1.8
				S136.1,51.7,135.9,52.9z"/>
			<path class="st0" d="M150.5,48.1c0-0.8,0.4-1.2,1.2-1.2h1.2v11.4h-2.3V48.1z"/>
			<path class="st0" d="M160.4,58.3c-0.7-0.1-1.1-0.4-1.1-1.1v-4.6c-0.1-0.9-0.6-1.4-1.5-1.4c-1,0-1.5,0.5-1.5,1.4v5.7H154v-5.2
				c0-2.5,1.3-3.8,3.8-3.8c2.5,0,3.8,1.3,3.8,3.8v5.2H160.4z"/>
			<path class="st0" d="M165.1,51.6h-0.3v6.7h-2.2v-9.1c-0.1-1.7,0.9-2.4,2.6-2.4c0.4,0,0.7,0,1.1,0.1v1.8h-0.6
				c-0.5,0-0.8,0.2-0.9,0.7V50h1.4v0.5C166.2,51.1,165.7,51.6,165.1,51.6z"/>
			<path class="st0" d="M169.1,51.8h-2.2c0.3-1.6,1.4-2.4,3.5-2.4c2.4,0,3.7,0.8,3.7,2.4v3c0,2.4-1.5,3.5-3.9,3.7
				c-2.1,0.2-3.6-0.8-3.6-2.8c0.1-2.1,1.6-2.7,3.8-2.9c1-0.1,1.4-0.4,1.4-0.9c-0.1-0.5-0.5-0.8-1.4-0.8
				C169.7,51.1,169.2,51.3,169.1,51.8z M171.9,54.7v-0.8c-0.5,0.2-1.1,0.4-1.8,0.5c-0.9,0.2-1.3,0.6-1.3,1.2c0.1,0.7,0.4,1,1.1,1
				C171.2,56.7,171.9,55.9,171.9,54.7z"/>
			<path class="st0" d="M181.6,58.3c-0.7-0.1-1.1-0.4-1.1-1.1v-4.6c-0.1-0.9-0.6-1.4-1.5-1.4c-1,0-1.5,0.5-1.5,1.4v5.7h-2.3v-5.2
				c0-2.5,1.3-3.8,3.8-3.8c2.5,0,3.8,1.3,3.8,3.8v5.2H181.6z"/>
			<path class="st0" d="M186.2,51h-0.2v4.9c0,0.4,0.2,0.6,0.7,0.6h0.7v1.7c-0.7,0.1-1.5,0.1-2.3,0c-0.8-0.1-1.2-0.6-1.2-1.6v-9.7
				h1.2c0.6,0,1.1,0.5,1.1,1.1v1.4h1.3v0.5C187.3,50.6,186.8,51,186.2,51z"/>
			<path class="st0" d="M189.7,46.9c0.7,0,1.1,0.4,1.1,1.1v0.7h-2.2v-1.7H189.7z M189.7,49.4c0.7,0,1.1,0.4,1.1,1.1v7.8h-2.2v-8.9
				H189.7z"/>
			<path class="st0" d="M194.6,48v10.3h-2.2V46.9h1.2C194.1,46.9,194.6,47.4,194.6,48z"/>
		</g>
		<g>
			<path class="st1" d="M78.9,65.6h1.3v10.1h6v2.3h-8.6v-11C77.6,66.2,78.2,65.6,78.9,65.6z"/>
			<path class="st1" d="M95.9,73.2c0,3.3-1.5,5-4.4,5c-2.9,0-4.4-1.7-4.4-5c0-3.3,1.5-5,4.4-5C94.5,68.2,95.9,69.8,95.9,73.2z
				 M89.6,73.2c0,1.9,0.7,2.8,1.9,2.8c1.2,0,1.9-1,1.9-2.9c0-1.9-0.6-2.8-1.9-2.8C90.3,70.3,89.6,71.3,89.6,73.2z"/>
			<path class="st1" d="M101.3,76.2c1,0,1.5-0.3,1.5-0.9c0-0.5-0.8-0.9-2.5-1.2c-2.1-0.4-3.2-1.3-3.2-2.8c0-2.1,1.6-3.1,3.8-3.1
				c1.2,0,2.2,0.3,2.9,0.8c0.7,0.6,1.1,1.3,1.1,2.3h-1.5c-0.6,0-0.9-0.2-1.1-0.6c-0.2-0.4-0.7-0.7-1.5-0.7c-0.9,0-1.4,0.3-1.4,0.7
				c0,0.5,0.6,0.9,1.9,1.1c1.6,0.3,2.7,0.7,3.2,1.2c0.5,0.5,0.7,1.1,0.7,1.7c0,2.4-1.9,3.2-4.4,3.2c-1.3,0-2.4-0.3-3-0.9
				c-0.7-0.5-1.1-1.4-1.1-2.5h2.5C99.3,75.8,100.1,76.2,101.3,76.2z"/>
			<path class="st1" d="M120.5,73.5h-3.1v4.4h-2.5v-11c0-0.7,0.6-1.3,1.3-1.3h4.2c2.6,0,4,1.4,4,4C124.3,72,123,73.5,120.5,73.5z
				 M119.9,71.3c1.3,0,1.9-0.6,1.9-1.8c0-1.2-0.6-1.8-1.8-1.8h-2.6v3.6H119.9z"/>
			<path class="st1" d="M126.7,65.6c0.8,0,1.2,0.4,1.2,1.2v0.7h-2.4v-1.9H126.7z M126.7,68.3c0.8,0,1.2,0.4,1.2,1.2v8.4h-2.4v-9.6
				H126.7z"/>
			<path class="st1" d="M136.2,77.9c-0.8-0.1-1.2-0.4-1.2-1.2v-4.9c-0.1-1-0.6-1.5-1.7-1.5s-1.6,0.5-1.6,1.5v6.1h-2.5v-5.7
				c0-2.7,1.4-4.1,4.1-4.1c2.7,0,4.1,1.4,4.1,4.1v5.7H136.2z"/>
			<path class="st1" d="M147.2,73.2c0,3.3-1.5,5-4.4,5c-2.9,0-4.4-1.7-4.4-5c0-3.3,1.5-5,4.4-5C145.7,68.2,147.2,69.8,147.2,73.2z
				 M140.9,73.2c0,1.9,0.7,2.8,1.9,2.8c1.2,0,1.9-1,1.9-2.9c0-1.9-0.6-2.8-1.9-2.8C141.5,70.3,140.9,71.3,140.9,73.2z"/>
			<path class="st1" d="M152.5,76.2c1,0,1.5-0.3,1.5-0.9c0-0.5-0.8-0.9-2.5-1.2c-2.1-0.4-3.2-1.3-3.2-2.8c0-2.1,1.6-3.1,3.8-3.1
				c1.2,0,2.2,0.3,2.9,0.8c0.7,0.6,1.1,1.3,1.1,2.3h-1.5c-0.6,0-0.9-0.2-1.1-0.6c-0.2-0.4-0.7-0.7-1.5-0.7c-0.9,0-1.4,0.3-1.4,0.7
				c0,0.5,0.6,0.9,1.9,1.1c1.6,0.3,2.7,0.7,3.2,1.2c0.5,0.5,0.7,1.1,0.7,1.7c0,2.4-1.9,3.2-4.4,3.2c-1.3,0-2.4-0.3-3-0.9
				c-0.7-0.5-1.1-1.4-1.1-2.5h2.5C150.6,75.8,151.4,76.2,152.5,76.2z"/>
			<path class="st1" d="M172.4,65.6l4.4,12.4h-2.7l-0.8-2.5h-4.8l-0.8,2.5H165l4.1-11.5c0.2-0.5,0.6-0.8,1.2-0.8H172.4z M169.2,73.3
				h3.4l-1.7-5.3L169.2,73.3z"/>
			<path class="st1" d="M180.1,76v1.9H178v-1.2c0-0.5,0.3-0.7,0.8-0.7H180.1z"/>
			<path class="st1" d="M186.9,78.1c-3.8,0-5.7-2.5-5.7-6.4c0-4,2-6.4,5.9-6.4c1.5,0,2.7,0.4,3.7,1.1c0.9,0.8,1.4,1.9,1.5,3.2h-1.5
				c-0.5,0-0.9-0.3-1.2-0.7c-0.4-0.9-1.2-1.3-2.4-1.3c-2.3,0-3.4,1.7-3.4,4.1c0,2.4,1,4.1,3.3,4.1c1.6,0,2.5-0.9,2.8-2.2h2.5
				C192.1,76.5,190.1,78.1,186.9,78.1z"/>
			<path class="st1" d="M194.9,76v1.9h-2.1v-1.2c0-0.5,0.3-0.7,0.8-0.7H194.9z"/>
		</g>
	</g>
	<g>
		<g>
			<defs>
				<polygon id="SVGID_1_" points="15.7,78.6 15.7,68.5 5.1,68.5 26.8,30.5 36.1,47.1 48.2,21.4 69.2,68.5 58.7,68.5 58.7,78.6 				
					"/>
			</defs>
			<clipPath id="SVGID_2_">
				<use xlink:href="#SVGID_1_"  style="overflow:visible;"/>
			</clipPath>
			<g class="st2">
				<rect x="3.2" y="73.9" class="st1" width="70.3" height="4.6"/>
				<rect x="3.2" y="69" class="st1" width="70.3" height="4.6"/>
				<rect x="3.2" y="64" class="st1" width="70.3" height="4.6"/>
				<rect x="3.2" y="59.1" class="st1" width="70.3" height="4.6"/>
				<rect x="3.2" y="54.1" class="st1" width="70.3" height="4.6"/>
				<rect x="3.2" y="49.1" class="st1" width="70.3" height="4.6"/>
				<rect x="3.2" y="44.2" class="st1" width="70.3" height="4.6"/>
				<rect x="3.2" y="39.2" class="st1" width="70.3" height="4.6"/>
				<rect x="3.2" y="34.3" class="st1" width="70.3" height="4.6"/>
				<rect x="3.2" y="29.3" class="st1" width="70.3" height="4.6"/>
				<rect x="3.2" y="24.3" class="st1" width="70.3" height="4.6"/>
				<rect x="3.2" y="19.4" class="st1" width="70.3" height="4.6"/>
			</g>
		</g>
		<path class="st3" d="M58.8,48.3c-0.9-0.8-2.2-0.6-2.9,0c-0.7,0.6-4.8,4.3-5.3,4.6c-0.5,0.3-1.6,0.5-1.7,0c-0.1-0.6,0-0.6,0.4-0.7
			c0.4-0.1,2.8-0.8,2.8-4.2c0-3.4-3-5.3-4.9-5.2c-1.9,0.1-4.7,1-5,4.8c-0.3,3.8,2.8,4.6,3,4.6c0.2,0,0.5,0.5,0,0.9s-1.1,0.2-1.1,0.2
			S43,53.3,42.2,54s-5.9,6.6-5.9,6.6s-0.3,0.2-0.6-0.1s-4-3.8-4-3.8s-1.1-1-2.9-0.7c0,0-0.3,0.1-0.4-0.3c0-0.4,0.3-0.4,0.6-0.5
			s2.6-1.3,2.4-4.1c0,0,1.4,1,2.8,0c0,0-1-0.8-0.7-1.7c0.3-0.9,0.1-2.2-1.5-2.3c-1.6-0.1-2.1,0.7-2.1,0.9c0,0.2-0.5-0.9-2.4-0.7
			c-1.9,0.2-2.8,0.9-2.8,0.9s-0.2-1.2-1.8-1.1c-1.7,0-2,1.2-2,1.5c0,0.3,0.6,2-0.6,2.4c0,0,0.9,1.3,2.8,0.1l0.2-0.2
			c0,0-0.4,3.3,2.7,4.4c0,0,0.3,0.5-0.4,0.6s-4.8-3.6-5.8-4.3s-1.8-0.7-2.4,0.1s-0.5,1.5,0.1,2.4c0.6,0.9,5.6,4.8,5.6,4.8
			s0.4,0.3,0.1,0.9c-0.2,0.7-3.2,10.2-3.2,10.2h3.3c0,0.6,0,4.6,0,5.9c0,1.4,1.5,1.2,1.5,1.2s1.7,0.2,1.7-1.1s0-5.9,0-5.9l-1.1,0
			h2.7c0,0.6,0,4.6,0,5.9c0,1.4,1.5,1.2,1.5,1.2s1.7,0.2,1.7-1.1s0-5.9,0-5.9l-1.1,0h4.4l-2.4-7.3l2.6,2.6c0,0,0.5,0.6,1.2,0.6
			s1-0.3,1.5-0.7s4.5-5.1,4.5-5.1s-0.2,3.8-0.2,4.4c-0.1,0.6-2.7,8.7-2.9,9.5c-0.2,0.8-0.4,2.2,1.1,2.9c1.6,0.6,2.6,0.1,3.1-1.2
			s2.5-7.2,2.5-7.2s0.5-1.3,1.2-1.3c0.7,0.1,1.1,0.5,1.3,1.1c0.2,0.6,2,6.8,2,6.8s0.7,2.4,3.1,1.8c2.5-0.6,1.5-2.6,1.3-3.1
			c-0.2-0.6-2.4-8-2.4-8s-0.8-2.3-0.8-4s-0.1-2.8-0.1-2.8s0-1.4,1.2-2.3c1.2-0.9,4.9-4.2,5.9-5S59.7,49.1,58.8,48.3z"/>
	</g>
</g>
</svg>
