<?xml version="1.0" encoding="utf-8"?>
<!-- Generator: Adobe Illustrator 19.2.1, SVG Export Plug-In . SVG Version: 6.00 Build 0)  -->
<svg version="1.1" id="Layer_1" xmlns="http://www.w3.org/2000/svg" xmlns:xlink="http://www.w3.org/1999/xlink" x="0px" y="0px"
	 viewBox="0 0 200 100" style="enable-background:new 0 0 200 100;" xml:space="preserve">
<style type="text/css">
	.st0{fill:#373435;}
	.st1{fill:#3D9C49;}
	.st2{clip-path:url(#SVGID_2_);}
	.st3{fill:#FFFFFF;}
	.st4{fill:#CA3438;}
	.st5{fill:#19337D;}
	.st6{fill:#F1B900;}
	.st7{fill:#35818D;}
</style>
<g>
	<path class="st7" d="M83.5,58h36.3c-2.1-1.7-4.5-3.4-6.9-4.9C129.1,44,157,33.5,157,33.5l-13.6-17.2c-14.3,5-32.7,18.7-45.4,29.2
		C73,34.7,44.1,30.8,44.1,30.8C71.4,40.5,83.5,49.7,88,54C85.9,55.8,84.3,57.2,83.5,58z"/>
	<path class="st7" d="M93.9,33.1c8.8,0.7,11.3-5.3,11.3-5.3l-3.9-3.2c-4.4,7.1-10.8,4.4-11.7,3.9c-0.9-0.5-6.5-4.5-1.4-12.2
		s12.8-2.8,12.8-2.8l0.2-1.7c0,0-8.6-7.4-16-0.2S85.2,32.3,93.9,33.1z"/>
	<path class="st7" d="M85.2,73.1c0-7.4-16.2-7-19.5-7H43v1h5.4v11.4H43v1h5.4v11.1H43v1h5.4h11.9h5.4v-1h-5.4V79.6h5.4
		C65.8,79.6,85.2,80.5,85.2,73.1z M65.8,78.6h-5.4V67.1h4.8c0.1,0.1,0.2,0.1,0.2,0.1c4.1,0,7.5-0.2,7.5,5.4S71.8,78.6,65.8,78.6z"/>
	<path class="st7" d="M145.3,90.6c-1.2,0-1.9,0-2.2,0h-9.4V79.3h4.1c2.8,0,5.3,1.9,5.3,4.4c0.2,0.1,2.4,0,2.4,0v-4.8v-0.5v-4.8
		c0,0-2.2-0.1-2.4,0c0,2.5-2.5,4.4-5.3,4.4h-4.1V67.1h8.1c0.3,0,1,0,2.2,0c7.4,0,9.2,5.8,9.2,5.8h2.3v-5.8v-0.8v-0.2h-38.5v1h4.7
		v23.5h-6.9L97.7,65.8l0,0h0l0,0l0,0h-2.5c0,0-14.8,21.7-16.2,23.4c-1.3,1.5-2.5,1.5-2.8,1.4l0.3,0h-3.5v1h14v-1h-4.1
		c-0.1,0-0.2-0.1-0.5-0.1c-1.9,0-1.4-1.2-1.4-1.2l3.6-5h14.1l3.9,6.2h-5.7v1h25.1h11.9h23v-0.2l0.1,0v-7.8h-2.3
		C154.5,83.7,153.5,90.6,145.3,90.6z M85,83.4l6.8-9.5l6,9.5H85z"/>
</g>
</svg>
