<?xml version="1.0" encoding="utf-8"?>
<!-- Generator: Adobe Illustrator 19.2.1, SVG Export Plug-In . SVG Version: 6.00 Build 0)  -->
<svg version="1.1" id="Layer_1" xmlns="http://www.w3.org/2000/svg" xmlns:xlink="http://www.w3.org/1999/xlink" x="0px" y="0px"
	 viewBox="0 0 100 100" style="enable-background:new 0 0 100 100;" xml:space="preserve">
<style type="text/css">
	.st0{fill:#297385;}
</style>
<g>
	<path class="st0" d="M91.1,24.5c-0.8-8-2.1-14.2-4.2-16.6C78.5-2.2,19-3,12.3,7.8c-1.7,2.6-2.8,8.8-3.6,16.7
		c-2.5,0.3-4.5,2.4-4.5,5v9.8c0,2.2,1.4,4,3.3,4.7C7.1,59.4,7.5,75.4,8.1,83.4c0,6.2,4.1,5.1,4.1,5.1h3.9v6.7c0,2.6,2.7,4.8,6.1,4.8
		c3.4,0,6.1-2.1,6.1-4.8v-6.7h45.2v6.7c0,2.6,2.7,4.8,6.1,4.8c3.4,0,6.1-2.1,6.1-4.8v-6.7h1.3c0,0,4.9,0.7,5.2-2.2
		c0-8,0.5-25.6,0.1-42.3c2-0.6,3.5-2.5,3.5-4.8v-9.8C95.8,26.8,93.7,24.7,91.1,24.5z M26.8,9.2h45.6v6.9H26.8V9.2z M27.4,80.7
		c-3.6,0-6.5-2.9-6.5-6.5c0-3.6,2.9-6.5,6.5-6.5s6.5,2.9,6.5,6.5C33.9,77.8,31,80.7,27.4,80.7z M72.2,80.7c-3.6,0-6.5-2.9-6.5-6.5
		c0-3.6,2.9-6.5,6.5-6.5c3.6,0,6.5,2.9,6.5,6.5C78.7,77.8,75.8,80.7,72.2,80.7z M80.4,52.3H18.8V20h61.6V52.3z"/>
</g>
</svg>
